<?xml version="1.0" encoding="UTF-8" standalone="no"?>
<!DOCTYPE svg PUBLIC "-//W3C//DTD SVG 1.1//EN" "http://www.w3.org/Graphics/SVG/1.1/DTD/svg11.dtd">
<svg width="100%" height="100%" viewBox="0 0 1024 1024" version="1.1" xmlns="http://www.w3.org/2000/svg" xmlns:xlink="http://www.w3.org/1999/xlink" xml:space="preserve" xmlns:serif="http://www.serif.com/" style="fill-rule:evenodd;clip-rule:evenodd;stroke-linejoin:round;stroke-miterlimit:2;">
    <g id="Small-Range" serif:id="Small Range" transform="matrix(1,0,0,1,0,-592.379)">
        <g transform="matrix(0.797344,0,0,0.797344,-30.3275,573.22)">
            <rect x="330.112" y="303.395" width="200.037" height="200.037"/>
        </g>
        <g transform="matrix(0.797344,0,0,0.797344,169.038,573.22)">
            <rect x="330.112" y="303.395" width="200.037" height="200.037"/>
        </g>
        <g transform="matrix(0.797344,0,0,0.797344,368.404,573.22)">
            <rect x="330.112" y="303.395" width="200.037" height="200.037"/>
        </g>
        <g transform="matrix(0.797344,0,0,0.797344,-30.3275,782.718)">
            <rect x="330.112" y="303.395" width="200.037" height="200.037"/>
        </g>
        <g transform="matrix(0.797344,0,0,0.797344,169.038,782.718)">
            <rect x="330.112" y="303.395" width="200.037" height="200.037"/>
        </g>
        <g transform="matrix(0.797344,0,0,0.797344,368.404,782.718)">
            <rect x="330.112" y="303.395" width="200.037" height="200.037"/>
        </g>
        <g transform="matrix(0.797344,0,0,0.797344,-30.3275,992.22)">
            <rect x="330.112" y="303.395" width="200.037" height="200.037"/>
        </g>
        <g transform="matrix(0.797344,0,0,0.797344,169.038,992.22)">
            <rect x="330.112" y="303.395" width="200.037" height="200.037"/>
        </g>
        <g transform="matrix(0.797344,0,0,0.797344,368.404,992.22)">
            <rect x="330.112" y="303.395" width="200.037" height="200.037"/>
        </g>
    </g>
</svg>
