<?xml version="1.0" encoding="UTF-8" standalone="no"?>
<!DOCTYPE svg PUBLIC "-//W3C//DTD SVG 1.1//EN" "http://www.w3.org/Graphics/SVG/1.1/DTD/svg11.dtd">
<svg width="100%" height="100%" viewBox="0 0 1024 1024" version="1.1" xmlns="http://www.w3.org/2000/svg" xmlns:xlink="http://www.w3.org/1999/xlink" xml:space="preserve" xmlns:serif="http://www.serif.com/" style="fill-rule:evenodd;clip-rule:evenodd;stroke-linejoin:round;stroke-miterlimit:2;">
    <g id="Large-Range" serif:id="Large Range" transform="matrix(1,0,0,1,2.27374e-13,-163.883)">
        <g transform="matrix(0.797344,0,0,0.797344,-239.826,773.22)">
            <rect x="330.112" y="303.395" width="200.037" height="200.037"/>
        </g>
        <g transform="matrix(0.797344,0,0,0.797344,-40.4603,773.22)">
            <rect x="330.112" y="303.395" width="200.037" height="200.037"/>
        </g>
        <g transform="matrix(0.797344,0,0,0.797344,158.905,773.22)">
            <rect x="330.112" y="303.395" width="200.037" height="200.037"/>
        </g>
        <g transform="matrix(0.797344,0,0,0.797344,368.404,773.22)">
            <rect x="330.112" y="303.395" width="200.037" height="200.037"/>
        </g>
        <g transform="matrix(0.797344,0,0,0.797344,577.902,773.22)">
            <rect x="330.112" y="303.395" width="200.037" height="200.037"/>
        </g>
        <g transform="matrix(0.797344,0,0,0.797344,-239.826,563.722)">
            <rect x="330.112" y="303.395" width="200.037" height="200.037"/>
        </g>
        <g transform="matrix(0.797344,0,0,0.797344,-40.4603,563.722)">
            <rect x="330.112" y="303.395" width="200.037" height="200.037"/>
        </g>
        <g transform="matrix(0.797344,0,0,0.797344,158.905,563.722)">
            <rect x="330.112" y="303.395" width="200.037" height="200.037"/>
        </g>
        <g transform="matrix(0.797344,0,0,0.797344,368.404,563.722)">
            <rect x="330.112" y="303.395" width="200.037" height="200.037"/>
        </g>
        <g transform="matrix(0.797344,0,0,0.797344,577.902,563.722)">
            <rect x="330.112" y="303.395" width="200.037" height="200.037"/>
        </g>
        <g transform="matrix(0.797344,0,0,0.797344,-239.826,354.223)">
            <rect x="330.112" y="303.395" width="200.037" height="200.037"/>
        </g>
        <g transform="matrix(0.797344,0,0,0.797344,-40.4603,354.223)">
            <rect x="330.112" y="303.395" width="200.037" height="200.037"/>
        </g>
        <g transform="matrix(0.797344,0,0,0.797344,158.905,354.223)">
            <rect x="330.112" y="303.395" width="200.037" height="200.037"/>
        </g>
        <g transform="matrix(0.797344,0,0,0.797344,368.404,354.223)">
            <rect x="330.112" y="303.395" width="200.037" height="200.037"/>
        </g>
        <g transform="matrix(0.797344,0,0,0.797344,577.902,354.223)">
            <rect x="330.112" y="303.395" width="200.037" height="200.037"/>
        </g>
        <g transform="matrix(0.797344,0,0,0.797344,-239.826,144.725)">
            <rect x="330.112" y="303.395" width="200.037" height="200.037"/>
        </g>
        <g transform="matrix(0.797344,0,0,0.797344,-40.4603,144.725)">
            <rect x="330.112" y="303.395" width="200.037" height="200.037"/>
        </g>
        <g transform="matrix(0.797344,0,0,0.797344,158.905,144.725)">
            <rect x="330.112" y="303.395" width="200.037" height="200.037"/>
        </g>
        <g transform="matrix(0.797344,0,0,0.797344,368.404,144.725)">
            <rect x="330.112" y="303.395" width="200.037" height="200.037"/>
        </g>
        <g transform="matrix(0.797344,0,0,0.797344,577.902,144.725)">
            <rect x="330.112" y="303.395" width="200.037" height="200.037"/>
        </g>
        <g transform="matrix(0.797344,0,0,0.797344,-239.826,-64.7732)">
            <rect x="330.112" y="303.395" width="200.037" height="200.037"/>
        </g>
        <g transform="matrix(0.797344,0,0,0.797344,-40.4603,-64.7732)">
            <rect x="330.112" y="303.395" width="200.037" height="200.037"/>
        </g>
        <g transform="matrix(0.797344,0,0,0.797344,158.905,-64.7732)">
            <rect x="330.112" y="303.395" width="200.037" height="200.037"/>
        </g>
        <g transform="matrix(0.797344,0,0,0.797344,368.404,-64.7732)">
            <rect x="330.112" y="303.395" width="200.037" height="200.037"/>
        </g>
        <g transform="matrix(0.797344,0,0,0.797344,577.902,-64.7732)">
            <rect x="330.112" y="303.395" width="200.037" height="200.037"/>
        </g>
    </g>
</svg>
