<?xml version="1.0" encoding="UTF-8" standalone="no"?>
<!DOCTYPE svg PUBLIC "-//W3C//DTD SVG 1.1//EN" "http://www.w3.org/Graphics/SVG/1.1/DTD/svg11.dtd">
<svg width="100%" height="100%" viewBox="0 0 1024 1024" version="1.1" xmlns="http://www.w3.org/2000/svg" xmlns:xlink="http://www.w3.org/1999/xlink" xml:space="preserve" xmlns:serif="http://www.serif.com/" style="fill-rule:evenodd;clip-rule:evenodd;stroke-linejoin:round;stroke-miterlimit:2;">
    <g id="Medium-Range" serif:id="Medium Range" transform="matrix(1,0,0,1,2.27374e-13,-68.632)">
        <g transform="matrix(0.797344,0,0,0.797344,-135.077,573.22)">
            <rect x="330.112" y="303.395" width="200.037" height="200.037"/>
        </g>
        <g transform="matrix(0.797344,0,0,0.797344,64.2888,573.22)">
            <rect x="330.112" y="303.395" width="200.037" height="200.037"/>
        </g>
        <g transform="matrix(0.797344,0,0,0.797344,263.654,573.22)">
            <rect x="330.112" y="303.395" width="200.037" height="200.037"/>
        </g>
        <g transform="matrix(0.797344,0,0,0.797344,473.153,573.22)">
            <rect x="330.112" y="303.395" width="200.037" height="200.037"/>
        </g>
        <g transform="matrix(0.797344,0,0,0.797344,-135.077,363.722)">
            <rect x="330.112" y="303.395" width="200.037" height="200.037"/>
        </g>
        <g transform="matrix(0.797344,0,0,0.797344,64.2888,363.722)">
            <rect x="330.112" y="303.395" width="200.037" height="200.037"/>
        </g>
        <g transform="matrix(0.797344,0,0,0.797344,263.654,363.722)">
            <rect x="330.112" y="303.395" width="200.037" height="200.037"/>
        </g>
        <g transform="matrix(0.797344,0,0,0.797344,473.153,363.722)">
            <rect x="330.112" y="303.395" width="200.037" height="200.037"/>
        </g>
        <g transform="matrix(0.797344,0,0,0.797344,-135.077,154.223)">
            <rect x="330.112" y="303.395" width="200.037" height="200.037"/>
        </g>
        <g transform="matrix(0.797344,0,0,0.797344,64.2888,154.223)">
            <rect x="330.112" y="303.395" width="200.037" height="200.037"/>
        </g>
        <g transform="matrix(0.797344,0,0,0.797344,263.654,154.223)">
            <rect x="330.112" y="303.395" width="200.037" height="200.037"/>
        </g>
        <g transform="matrix(0.797344,0,0,0.797344,473.153,154.223)">
            <rect x="330.112" y="303.395" width="200.037" height="200.037"/>
        </g>
        <g transform="matrix(0.797344,0,0,0.797344,-135.077,-55.2749)">
            <rect x="330.112" y="303.395" width="200.037" height="200.037"/>
        </g>
        <g transform="matrix(0.797344,0,0,0.797344,64.2888,-55.2749)">
            <rect x="330.112" y="303.395" width="200.037" height="200.037"/>
        </g>
        <g transform="matrix(0.797344,0,0,0.797344,263.654,-55.2749)">
            <rect x="330.112" y="303.395" width="200.037" height="200.037"/>
        </g>
        <g transform="matrix(0.797344,0,0,0.797344,473.153,-55.2749)">
            <rect x="330.112" y="303.395" width="200.037" height="200.037"/>
        </g>
    </g>
</svg>
