<?xml version="1.0" encoding="UTF-8" standalone="no"?>
<!DOCTYPE svg PUBLIC "-//W3C//DTD SVG 1.1//EN" "http://www.w3.org/Graphics/SVG/1.1/DTD/svg11.dtd">
<svg width="100%" height="100%" viewBox="0 0 1024 1024" version="1.1" xmlns="http://www.w3.org/2000/svg" xmlns:xlink="http://www.w3.org/1999/xlink" xml:space="preserve" xmlns:serif="http://www.serif.com/" style="fill-rule:evenodd;clip-rule:evenodd;stroke-linecap:round;stroke-linejoin:round;stroke-miterlimit:1.5;">
    <g id="Nugget" transform="matrix(1,0,0,1,-18.0482,-204.59)">
        <path d="M304.646,567.509L339.358,702.349L561.422,716.59L607.259,686.329L661.996,688.999L755.45,628.921L721.184,493.636L608.594,486.515L600.584,453.139L433.702,442.904L389.645,471.385L397.655,504.761L304.646,567.509Z" style="stroke:black;stroke-width:1px;"/>
    </g>
    <g id="Medium-Range" serif:id="Medium Range" transform="matrix(1,0,0,1,2.27374e-13,-171.65)">
        <g transform="matrix(0.797344,0,0,0.797344,-135.077,573.22)">
            <rect x="330.112" y="303.395" width="200.037" height="200.037"/>
        </g>
        <g transform="matrix(0.797344,0,0,0.797344,64.2888,573.22)">
            <rect x="330.112" y="303.395" width="200.037" height="200.037"/>
        </g>
        <g transform="matrix(0.797344,0,0,0.797344,263.654,573.22)">
            <rect x="330.112" y="303.395" width="200.037" height="200.037"/>
        </g>
        <g transform="matrix(0.797344,0,0,0.797344,473.153,573.22)">
            <rect x="330.112" y="303.395" width="200.037" height="200.037"/>
        </g>
    </g>
</svg>
