<?xml version="1.0" encoding="UTF-8" standalone="no"?><!DOCTYPE svg PUBLIC "-//W3C//DTD SVG 1.1//EN" "http://www.w3.org/Graphics/SVG/1.1/DTD/svg11.dtd"><svg width="100%" height="100%" viewBox="0 0 246 246" version="1.1" xmlns="http://www.w3.org/2000/svg" xmlns:xlink="http://www.w3.org/1999/xlink" xml:space="preserve" xmlns:serif="http://www.serif.com/" style="fill-rule:evenodd;clip-rule:evenodd;stroke-linejoin:round;stroke-miterlimit:2;"><rect id="Quantity-Mode--Long-Range-" serif:id="Quantity Mode (Long Range)" x="0" y="0" width="245.76" height="245.76" style="fill:none;"/><g id="Blocks"><path id="Block" d="M214.08,204.454l-48,0l0,-48l48,0l0,48Z"/><path id="Block1" serif:id="Block" d="M146.88,204.454l-48,0l0,-48l48,0l0,48Z"/><path id="Block2" serif:id="Block" d="M79.68,204.454l-48,0l0,-48l48,0l0,48Z"/></g><path id="_123" serif:id="123" d="M153.853,106.696c-0,4.547 -0.844,8.637 -2.532,12.27c-1.687,3.633 -4.277,6.727 -7.769,9.281c-3.492,2.555 -7.887,4.512 -13.184,5.871c-5.297,1.36 -11.531,2.039 -18.703,2.039c-1.594,0 -3.269,-0.035 -5.027,-0.105c-1.758,-0.07 -3.504,-0.164 -5.238,-0.281c-1.735,-0.118 -3.422,-0.258 -5.063,-0.422c-1.641,-0.164 -3.117,-0.364 -4.43,-0.598l0,-14.906c2.953,0.562 6.27,1.019 9.95,1.371c3.679,0.352 7.511,0.527 11.496,0.527c3.89,0 7.242,-0.328 10.054,-0.984c2.813,-0.656 5.133,-1.606 6.961,-2.848c1.828,-1.242 3.176,-2.777 4.043,-4.605c0.867,-1.828 1.301,-3.891 1.301,-6.188c0,-2.015 -0.445,-3.843 -1.336,-5.484c-0.891,-1.641 -2.25,-3.035 -4.078,-4.184c-1.828,-1.148 -4.16,-2.039 -6.996,-2.672c-2.836,-0.632 -6.199,-0.949 -10.09,-0.949l-10.195,0l-0,-13.078l9.351,0c3.657,0 6.692,-0.363 9.106,-1.09c2.414,-0.726 4.336,-1.699 5.765,-2.918c1.43,-1.218 2.45,-2.66 3.059,-4.324c0.609,-1.664 0.914,-3.41 0.914,-5.238c0,-3.75 -1.219,-6.598 -3.656,-8.543c-2.438,-1.945 -6.211,-2.918 -11.321,-2.918c-3.656,-0 -7.265,0.351 -10.828,1.055c-3.562,0.703 -7.242,1.64 -11.039,2.812l0,-14.414c2.11,-0.703 4.125,-1.289 6.047,-1.758c1.922,-0.469 3.844,-0.867 5.766,-1.195c1.922,-0.328 3.867,-0.563 5.836,-0.703c1.968,-0.141 4.008,-0.211 6.117,-0.211c5.062,-0 9.504,0.539 13.324,1.617c3.82,1.078 7.031,2.613 9.633,4.605c2.602,1.993 4.559,4.418 5.871,7.278c1.313,2.859 1.969,6.047 1.969,9.562c-0,5.578 -1.278,10.09 -3.832,13.535c-2.555,3.446 -6.129,6.082 -10.723,7.911c2.953,0.468 5.625,1.277 8.016,2.425c2.39,1.149 4.441,2.625 6.152,4.43c1.711,1.805 3.024,3.879 3.938,6.223c0.914,2.343 1.371,4.945 1.371,7.804Z" style="fill-rule:nonzero;"/></svg>