<?xml version="1.0" encoding="UTF-8" standalone="no"?><!DOCTYPE svg PUBLIC "-//W3C//DTD SVG 1.1//EN" "http://www.w3.org/Graphics/SVG/1.1/DTD/svg11.dtd"><svg width="100%" height="100%" viewBox="0 0 246 246" version="1.1" xmlns="http://www.w3.org/2000/svg" xmlns:xlink="http://www.w3.org/1999/xlink" xml:space="preserve" xmlns:serif="http://www.serif.com/" style="fill-rule:evenodd;clip-rule:evenodd;stroke-linejoin:round;stroke-miterlimit:2;"><rect id="Distance-Mode--Long-Range-" serif:id="Distance Mode (Long Range)" x="0" y="0" width="245.76" height="245.76" style="fill:none;"/><path d="M112.614,140.845c0,4.547 -0.843,8.637 -2.531,12.269c-1.687,3.633 -4.277,6.727 -7.769,9.282c-3.493,2.554 -7.887,4.511 -13.184,5.871c-5.297,1.359 -11.531,2.039 -18.703,2.039c-1.594,-0 -3.27,-0.035 -5.027,-0.106c-1.758,-0.07 -3.504,-0.164 -5.239,-0.281c-1.734,-0.117 -3.422,-0.258 -5.062,-0.422c-1.641,-0.164 -3.117,-0.363 -4.43,-0.597l0,-14.907c2.953,0.563 6.27,1.02 9.949,1.371c3.68,0.352 7.512,0.528 11.496,0.528c3.891,-0 7.243,-0.328 10.055,-0.985c2.813,-0.656 5.133,-1.605 6.961,-2.847c1.828,-1.242 3.176,-2.778 4.043,-4.606c0.867,-1.828 1.301,-3.89 1.301,-6.187c-0,-2.016 -0.446,-3.844 -1.336,-5.485c-0.891,-1.64 -2.25,-3.035 -4.078,-4.183c-1.828,-1.149 -4.16,-2.039 -6.996,-2.672c-2.836,-0.633 -6.2,-0.949 -10.09,-0.949l-10.196,-0l0,-13.078l9.352,-0c3.656,-0 6.691,-0.364 9.105,-1.09c2.415,-0.727 4.336,-1.7 5.766,-2.918c1.43,-1.219 2.449,-2.66 3.059,-4.324c0.609,-1.665 0.914,-3.411 0.914,-5.239c-0,-3.75 -1.219,-6.597 -3.656,-8.543c-2.438,-1.945 -6.211,-2.918 -11.321,-2.918c-3.656,0 -7.265,0.352 -10.828,1.055c-3.562,0.703 -7.242,1.641 -11.039,2.812l0,-14.414c2.109,-0.703 4.125,-1.289 6.047,-1.757c1.922,-0.469 3.844,-0.868 5.766,-1.196c1.921,-0.328 3.867,-0.562 5.835,-0.703c1.969,-0.14 4.008,-0.211 6.118,-0.211c5.062,0 9.504,0.539 13.324,1.617c3.82,1.079 7.031,2.614 9.633,4.606c2.601,1.992 4.558,4.418 5.871,7.277c1.312,2.86 1.969,6.047 1.969,9.563c-0,5.578 -1.278,10.09 -3.833,13.535c-2.554,3.445 -6.128,6.082 -10.722,7.91c2.953,0.469 5.625,1.277 8.015,2.426c2.391,1.148 4.442,2.625 6.153,4.43c1.711,1.804 3.023,3.878 3.937,6.222c0.914,2.344 1.371,4.945 1.371,7.805Z" style="fill-rule:nonzero;"/><path d="M180.255,168.9l0,-48.657c0,-1.781 -0.047,-3.34 -0.141,-4.675c-0.093,-1.336 -0.281,-2.45 -0.562,-3.34c-0.281,-0.891 -0.692,-1.559 -1.231,-2.004c-0.539,-0.446 -1.277,-0.668 -2.214,-0.668c-1.454,-0 -2.883,0.984 -4.289,2.953c-1.407,1.969 -3,5.32 -4.782,10.055l0,46.336l-14.695,-0l-0,-48.657c-0,-1.781 -0.047,-3.34 -0.141,-4.675c-0.093,-1.336 -0.281,-2.45 -0.562,-3.34c-0.281,-0.891 -0.703,-1.559 -1.266,-2.004c-0.562,-0.446 -1.312,-0.668 -2.25,-0.668c-1.219,-0 -2.578,0.984 -4.078,2.953c-1.5,1.969 -3.164,5.32 -4.992,10.055l-0,46.336l-14.836,-0l-0,-71.438l12.727,0l0.281,10.406c1.031,-2.109 2.062,-3.914 3.094,-5.414c1.031,-1.5 2.132,-2.73 3.304,-3.691c1.172,-0.961 2.426,-1.653 3.762,-2.074c1.336,-0.422 2.848,-0.633 4.535,-0.633c3.984,-0 7.02,1.043 9.106,3.129c2.085,2.086 3.269,4.98 3.55,8.683c1.125,-2.109 2.239,-3.914 3.34,-5.414c1.102,-1.5 2.25,-2.73 3.445,-3.691c1.196,-0.961 2.485,-1.653 3.868,-2.074c1.382,-0.422 2.918,-0.633 4.605,-0.633c5.203,-0 9.047,1.816 11.531,5.449c2.485,3.633 3.727,9.012 3.727,16.137l-0,51.258l-14.836,-0Z" style="fill-rule:nonzero;"/></svg>