<?xml version="1.0" encoding="UTF-8" standalone="no"?><!DOCTYPE svg PUBLIC "-//W3C//DTD SVG 1.1//EN" "http://www.w3.org/Graphics/SVG/1.1/DTD/svg11.dtd"><svg width="100%" height="100%" viewBox="0 0 246 246" version="1.1" xmlns="http://www.w3.org/2000/svg" xmlns:xlink="http://www.w3.org/1999/xlink" xml:space="preserve" xmlns:serif="http://www.serif.com/" style="fill-rule:evenodd;clip-rule:evenodd;stroke-linejoin:round;stroke-miterlimit:2;"><rect id="Distance-Mode--Short-Range-" serif:id="Distance Mode (Short Range)" x="0" y="0" width="245.76" height="245.76" style="fill:none;"/><path d="M52.427,169.11l-0,-15.257l23.414,-0l-0,-59.063l-20.391,11.25l-5.625,-13.992l29.18,-15.398l14.414,-0l0,77.203l20.18,-0l-0,15.257l-61.172,0Z" style="fill-rule:nonzero;"/><path d="M181.099,169.11l-0,-48.656c-0,-1.781 -0.047,-3.34 -0.141,-4.676c-0.094,-1.336 -0.281,-2.449 -0.562,-3.339c-0.282,-0.891 -0.692,-1.559 -1.231,-2.004c-0.539,-0.446 -1.277,-0.668 -2.215,-0.668c-1.453,-0 -2.882,0.984 -4.289,2.953c-1.406,1.969 -3,5.32 -4.781,10.055l0,46.335l-14.695,0l-0,-48.656c-0,-1.781 -0.047,-3.34 -0.141,-4.676c-0.094,-1.336 -0.281,-2.449 -0.562,-3.339c-0.282,-0.891 -0.704,-1.559 -1.266,-2.004c-0.563,-0.446 -1.313,-0.668 -2.25,-0.668c-1.219,-0 -2.578,0.984 -4.078,2.953c-1.5,1.969 -3.164,5.32 -4.992,10.055l-0,46.335l-14.836,0l-0,-71.437l12.726,-0l0.281,10.406c1.032,-2.109 2.063,-3.914 3.094,-5.414c1.031,-1.5 2.133,-2.73 3.305,-3.691c1.172,-0.961 2.426,-1.653 3.762,-2.074c1.336,-0.422 2.847,-0.633 4.535,-0.633c3.984,-0 7.019,1.043 9.105,3.129c2.086,2.086 3.27,4.98 3.551,8.683c1.125,-2.109 2.238,-3.914 3.34,-5.414c1.101,-1.5 2.25,-2.73 3.445,-3.691c1.196,-0.961 2.485,-1.653 3.867,-2.074c1.383,-0.422 2.918,-0.633 4.606,-0.633c5.203,-0 9.047,1.816 11.531,5.449c2.485,3.633 3.727,9.012 3.727,16.137l-0,51.257l-14.836,0Z" style="fill-rule:nonzero;"/></svg>