<?xml version="1.0" encoding="UTF-8" standalone="no"?><!DOCTYPE svg PUBLIC "-//W3C//DTD SVG 1.1//EN" "http://www.w3.org/Graphics/SVG/1.1/DTD/svg11.dtd"><svg width="100%" height="100%" viewBox="0 0 246 246" version="1.1" xmlns="http://www.w3.org/2000/svg" xmlns:xlink="http://www.w3.org/1999/xlink" xml:space="preserve" xmlns:serif="http://www.serif.com/" style="fill-rule:evenodd;clip-rule:evenodd;stroke-linejoin:round;stroke-miterlimit:2;"><rect id="Quantity-Mode--Medium-Range-" serif:id="Quantity Mode (Medium Range)" x="0" y="0" width="245.76" height="245.76" style="fill:none;"/><g id="Blocks"><path id="Block" d="M180.48,203.76l-48,-0l0,-48l48,-0l0,48Z"/><path id="Block1" serif:id="Block" d="M113.28,203.76l-48,-0l0,-48l48,-0l0,48Z"/></g><path id="_123" serif:id="123" d="M91.907,135.445l0,-12.656l21.727,-21.726c4.078,-4.079 7.348,-7.594 9.809,-10.547c2.46,-2.953 4.359,-5.59 5.695,-7.911c1.336,-2.32 2.215,-4.464 2.637,-6.433c0.421,-1.969 0.632,-4.008 0.632,-6.117c0,-1.735 -0.281,-3.387 -0.843,-4.957c-0.563,-1.571 -1.383,-2.93 -2.461,-4.078c-1.078,-1.149 -2.438,-2.063 -4.078,-2.743c-1.641,-0.679 -3.516,-1.019 -5.625,-1.019c-3.61,-0 -6.961,0.785 -10.055,2.355c-3.094,1.571 -6.024,3.668 -8.789,6.293l-9.071,-11.672c3.985,-3.703 8.473,-6.668 13.465,-8.894c4.993,-2.227 10.395,-3.34 16.207,-3.34c4.5,0 8.578,0.574 12.235,1.723c3.656,1.148 6.785,2.847 9.386,5.097c2.602,2.25 4.618,5.063 6.047,8.438c1.43,3.375 2.145,7.265 2.145,11.672c-0,3.656 -0.492,7.066 -1.477,10.23c-0.984,3.164 -2.414,6.246 -4.289,9.246c-1.875,3 -4.183,6 -6.926,9c-2.742,3 -5.871,6.164 -9.386,9.492l-13.36,12.727l38.743,-0l-0,15.82l-62.368,0Z" style="fill-rule:nonzero;"/></svg>