<?xml version="1.0" encoding="UTF-8" standalone="no"?><!DOCTYPE svg PUBLIC "-//W3C//DTD SVG 1.1//EN" "http://www.w3.org/Graphics/SVG/1.1/DTD/svg11.dtd"><svg width="100%" height="100%" viewBox="0 0 246 246" version="1.1" xmlns="http://www.w3.org/2000/svg" xmlns:xlink="http://www.w3.org/1999/xlink" xml:space="preserve" xmlns:serif="http://www.serif.com/" style="fill-rule:evenodd;clip-rule:evenodd;stroke-linejoin:round;stroke-miterlimit:2;"><rect id="Rock-Mode" serif:id="Rock Mode" x="0" y="0" width="245.76" height="245.76" style="fill:none;"/><path id="Rock-1" serif:id="Rock 1" d="M175.68,82.8c-0,0 0.24,-7.36 -0,-10.08c-0.188,-2.126 -0.6,-4.6 -1.44,-6.24c-0.774,-1.51 -2.058,-2.891 -3.6,-3.6c-3.48,-1.6 -12.76,-4.723 -17.28,-6c-3.201,-0.904 -6.515,-1.56 -9.84,-1.662c-3.92,-0.12 -9.157,0.283 -13.68,0.942c-8.76,1.277 -29.56,4.48 -38.88,6.72c-5.937,1.427 -12.082,3.156 -17.04,6.72c-5.12,3.68 -13.68,15.36 -13.68,15.36c-0,-0 2.59,2.277 4.08,3.12c2.12,1.2 5.6,3.13 8.64,4.08c6.4,2 21.04,6.4 29.76,7.92c7.419,1.293 15.079,2.06 22.56,1.2c8,-0.92 16.066,-3.088 25.44,-6.72c9.374,-3.632 24.96,-11.76 24.96,-11.76Z"/><path id="Rock-2" serif:id="Rock 2" d="M55.2,87.36c-0,0 7.538,5.518 11.76,7.44c4.92,2.24 14.12,4.52 17.76,6c1.542,0.627 3.68,1.36 4.08,2.88c0.4,1.52 -0.926,4.222 -1.68,6.24c-1.36,3.64 -4.691,10.261 -6.48,15.6c-2.52,7.52 -5.64,23.72 -8.64,29.52c-1.646,3.182 -6.12,4.6 -9.36,5.28c-3.24,0.68 -7.06,0.327 -10.08,-1.2c-3.64,-1.84 -7.749,-6.672 -11.76,-9.84c-4.76,-3.76 -13.24,-9.2 -16.8,-12.72c-2.266,-2.24 -3.675,-6.32 -4.56,-8.4c-0.541,-1.272 -0.87,-2.72 -0.75,-4.08c0.12,-1.36 0.516,-2.994 1.47,-4.08c2.285,-2.6 8.44,-7.56 12.24,-11.52c3.731,-3.888 7.6,-9.2 10.56,-12.24c2.179,-2.238 5.16,-4.52 7.2,-6c1.566,-1.136 5.04,-2.88 5.04,-2.88Z"/></svg>