<?xml version="1.0" encoding="UTF-8" standalone="no"?><!DOCTYPE svg PUBLIC "-//W3C//DTD SVG 1.1//EN" "http://www.w3.org/Graphics/SVG/1.1/DTD/svg11.dtd"><svg width="100%" height="100%" viewBox="0 0 246 246" version="1.1" xmlns="http://www.w3.org/2000/svg" xmlns:xlink="http://www.w3.org/1999/xlink" xml:space="preserve" xmlns:serif="http://www.serif.com/" style="fill-rule:evenodd;clip-rule:evenodd;stroke-linejoin:round;stroke-miterlimit:2;"><rect id="Distance-Mode--Medium-Range-" serif:id="Distance Mode (Medium Range)" x="0" y="0" width="245.76" height="245.76" style="fill:none;"/><path d="M50.528,169.603l0,-12.657l21.727,-21.726c4.078,-4.078 7.348,-7.594 9.809,-10.547c2.461,-2.953 4.359,-5.59 5.695,-7.91c1.336,-2.321 2.215,-4.465 2.637,-6.434c0.422,-1.969 0.632,-4.008 0.632,-6.117c0,-1.734 -0.281,-3.387 -0.843,-4.957c-0.563,-1.57 -1.383,-2.93 -2.461,-4.078c-1.078,-1.149 -2.438,-2.063 -4.078,-2.742c-1.641,-0.68 -3.516,-1.02 -5.625,-1.02c-3.61,0 -6.961,0.785 -10.055,2.356c-3.094,1.57 -6.023,3.668 -8.789,6.293l-9.07,-11.672c3.984,-3.703 8.472,-6.668 13.464,-8.895c4.993,-2.226 10.395,-3.34 16.207,-3.34c4.5,0 8.579,0.575 12.235,1.723c3.656,1.148 6.785,2.848 9.387,5.098c2.601,2.25 4.617,5.062 6.046,8.437c1.43,3.375 2.145,7.266 2.145,11.672c-0,3.656 -0.492,7.066 -1.477,10.23c-0.984,3.165 -2.414,6.247 -4.289,9.247c-1.875,3 -4.183,6 -6.925,9c-2.743,3 -5.872,6.164 -9.387,9.492l-13.36,12.726l38.743,0l-0,15.821l-62.368,-0Z" style="fill-rule:nonzero;"/><path d="M180.818,169.603l-0,-48.657c-0,-1.781 -0.047,-3.339 -0.141,-4.675c-0.094,-1.336 -0.281,-2.45 -0.563,-3.34c-0.281,-0.891 -0.691,-1.559 -1.23,-2.004c-0.539,-0.445 -1.277,-0.668 -2.215,-0.668c-1.453,-0 -2.883,0.984 -4.289,2.953c-1.406,1.969 -3,5.32 -4.781,10.055l-0,46.336l-14.696,-0l0,-48.657c0,-1.781 -0.046,-3.339 -0.14,-4.675c-0.094,-1.336 -0.281,-2.45 -0.563,-3.34c-0.281,-0.891 -0.703,-1.559 -1.265,-2.004c-0.563,-0.445 -1.313,-0.668 -2.25,-0.668c-1.219,-0 -2.578,0.984 -4.078,2.953c-1.5,1.969 -3.164,5.32 -4.993,10.055l0,46.336l-14.836,-0l0,-71.438l12.727,0l0.281,10.406c1.032,-2.109 2.063,-3.914 3.094,-5.414c1.031,-1.5 2.133,-2.73 3.305,-3.691c1.172,-0.961 2.425,-1.652 3.761,-2.074c1.336,-0.422 2.848,-0.633 4.536,-0.633c3.984,-0 7.019,1.043 9.105,3.129c2.086,2.086 3.27,4.98 3.551,8.683c1.125,-2.109 2.238,-3.914 3.34,-5.414c1.101,-1.5 2.25,-2.73 3.445,-3.691c1.195,-0.961 2.484,-1.652 3.867,-2.074c1.383,-0.422 2.918,-0.633 4.606,-0.633c5.203,-0 9.047,1.816 11.531,5.449c2.484,3.633 3.726,9.012 3.726,16.137l0,51.258l-14.835,-0Z" style="fill-rule:nonzero;"/></svg>