<?xml version="1.0" encoding="UTF-8" standalone="no"?>
<!DOCTYPE svg PUBLIC "-//W3C//DTD SVG 1.1//EN" "http://www.w3.org/Graphics/SVG/1.1/DTD/svg11.dtd">
<svg width="100%" height="100%" viewBox="0 0 1024 1024" version="1.1" xmlns="http://www.w3.org/2000/svg" xmlns:xlink="http://www.w3.org/1999/xlink" xml:space="preserve" xmlns:serif="http://www.serif.com/" style="fill-rule:evenodd;clip-rule:evenodd;stroke-linecap:round;stroke-linejoin:round;stroke-miterlimit:1.5;">
    <g id="Rock-2" serif:id="Rock 2" transform="matrix(1.41132,0,0,1.41132,-221.199,-211.231)">
        <path d="M285.314,349.86C350.969,329.472 513.81,318.578 594.335,331.347C638.241,338.309 715.058,388.024 715.058,388.024C715.058,388.024 776.606,434.99 797.938,453.816C801.498,482.44 804.204,540.636 804.773,559.766C804.867,562.92 803.662,566.441 801.356,568.595C796.172,573.436 795.169,573.965 773.674,588.813C761.042,579.875 758.501,578.774 744.342,577.038C719.219,576.358 695.26,577.086 682.037,573.157C677.377,573.194 677.228,573.16 673.03,573.237C653.406,587.045 633.118,613.336 642.055,660.191C617.481,668.795 523,696.381 459.866,699.039C417.553,687.715 345.562,655.154 306.353,634.387C288.984,622.059 253.786,597.979 237.428,576.57C232.943,541.467 233.008,468.318 238.852,425.904C245.347,405.029 261.217,368.281 285.314,349.86Z" style="stroke:black;stroke-width:0.71px;"/>
        <g transform="matrix(1,0,0,1,7.51296,0.449609)">
            <path d="M637.89,659.166C637.89,659.166 635.703,640.573 639.166,623.803C642.629,607.034 651.379,589.899 665.232,578.963C669.789,578.051 673.254,578.433 677.263,578.598C692.878,584.37 716.453,581.606 735.957,581.879C750.739,585.372 770.694,594.491 776.787,602.112C780.721,607.032 780.081,615.495 778.61,621.981C774.448,640.33 753.759,675.419 741.972,685.961C736.292,691.04 728.625,695.303 721.01,695.075C710.863,694.771 692.999,686.356 681.09,684.138C670.728,682.208 656.756,685.93 649.556,681.768C642.356,677.606 637.89,659.166 637.89,659.166Z" style="stroke:black;stroke-width:0.71px;"/>
        </g>
    </g>
</svg>
